<svg width="164" height="164" viewBox="0 0 164 164" fill="none" xmlns="http://www.w3.org/2000/svg">
<rect width="164" height="164" fill="#0F064C" fill-opacity="0.45"/>
<g clip-path="url(#clip0)">
<path fill-rule="evenodd" clip-rule="evenodd" d="M53 58.6906L87.5867 52.01L87.4666 111.99L53 104.838V58.6906ZM65.2636 89.8384C62.6479 86.7768 61.9189 81.9657 63.171 77.9693C64.9119 72.4121 69.3285 70.534 73.0248 71.8204C75.1344 72.5579 77.0126 74.3331 78.0159 77.0517C78.4962 78.3552 78.7535 79.8474 78.7706 81.3654C78.8049 84.0925 77.8616 87.2999 75.992 89.5382C73.1191 92.9686 68.248 93.3202 65.2721 89.8384H65.2636ZM67.9564 86.9311C66.67 85.0187 66.3184 82.0171 66.9273 79.5215C67.7763 76.0569 69.946 74.882 71.7555 75.6881C72.7932 76.1512 73.7108 77.2575 74.1997 78.9555C74.4312 79.7702 74.5598 80.6964 74.5684 81.6484C74.5856 83.3464 74.1225 85.3532 73.2049 86.751C71.7984 88.895 69.4143 89.1094 67.9564 86.9397V86.9311ZM89.8421 64.6509H109.918C111.042 64.6509 111.959 65.5685 111.959 66.692V67.4295L96.1797 78.0722C95.9739 78.2094 95.4679 78.6039 95.0477 78.8698C94.4302 79.2728 94.3874 79.1957 93.7356 78.8269C92.7322 78.2695 90.9999 77.086 89.8336 76.2798V64.6509H89.8421ZM111.968 72.1548V93.6289C111.968 95.3441 110.562 96.7592 108.838 96.7592H89.8421V80.8765C90.9827 81.6312 92.5007 82.626 93.4354 83.2006C94.1901 83.6637 94.3273 83.8781 95.1678 83.3893C95.5537 83.1663 95.931 82.8747 96.1883 82.7032L111.968 72.1634V72.1548Z" fill="#898FEB"/>
</g>
<defs>
<clipPath id="clip0">
<rect x="53" y="52" width="58.968" height="60" fill="white"/>
</clipPath>
</defs>
</svg>
